<svg width="350" height="350" viewBox="0 0 350 350" fill="none" xmlns="http://www.w3.org/2000/svg">
<path d="M236.918 46.9735L61.9497 123.645C46.6792 130.337 44.3762 151.053 57.8092 160.93L211.683 274.138C225.113 284.018 244.205 275.653 246.043 259.088L267.137 69.2125C268.978 52.633 252.189 40.2815 236.918 46.9735Z" fill="#FFF1C9"/>
<path d="M294.112 282.604H38.3914C38.2058 282.604 38.0277 282.53 37.8964 282.399C37.7652 282.268 37.6914 282.09 37.6914 281.904C37.6914 281.718 37.7652 281.54 37.8964 281.409C38.0277 281.278 38.2058 281.204 38.3914 281.204H294.112C294.298 281.204 294.476 281.278 294.607 281.409C294.738 281.54 294.812 281.718 294.812 281.904C294.812 282.09 294.738 282.268 294.607 282.399C294.476 282.53 294.298 282.604 294.112 282.604Z" fill="#262626"/>
<path d="M198.181 143.44L206.91 114.593C207.032 114.191 207.241 113.82 207.522 113.507C207.804 113.195 208.151 112.948 208.538 112.785C208.926 112.622 209.345 112.546 209.765 112.563C210.186 112.581 210.597 112.691 210.97 112.885L220.392 117.785C220.799 117.997 221.15 118.304 221.413 118.68C221.677 119.056 221.846 119.49 221.907 119.946C221.967 120.401 221.917 120.864 221.76 121.296C221.604 121.728 221.346 122.115 221.008 122.426L198.181 143.44Z" fill="#D3B970"/>
<path d="M195.944 142.31L220.85 126.805C221.237 126.564 221.673 126.414 222.126 126.365C222.578 126.316 223.036 126.369 223.466 126.521C223.895 126.673 224.284 126.92 224.605 127.243C224.926 127.566 225.171 127.957 225.32 128.387L228.624 137.952C228.781 138.407 228.827 138.892 228.76 139.367C228.693 139.843 228.514 140.296 228.238 140.689C227.961 141.082 227.595 141.404 227.17 141.628C226.745 141.852 226.273 141.972 225.792 141.977L195.944 142.31Z" fill="#D3B970"/>
<path d="M160.727 195.689C172.323 195.689 181.724 186.288 181.724 174.692C181.724 163.096 172.323 153.696 160.727 153.696C149.131 153.696 139.731 163.096 139.731 174.692C139.731 186.288 149.131 195.689 160.727 195.689Z" fill="#262626"/>
<path d="M115.538 83.4189H33.0853C27.8469 83.4189 23.6003 87.6655 23.6003 92.9039V129.409C23.6003 134.647 27.8469 138.894 33.0853 138.894H115.538C120.777 138.894 125.023 134.647 125.023 129.409V92.9039C125.023 87.6655 120.777 83.4189 115.538 83.4189Z" fill="white"/>
<path d="M115.538 139.594H33.0889C30.3876 139.591 27.7977 138.517 25.8876 136.607C23.9775 134.697 22.9032 132.107 22.9004 129.405V92.9075C22.9032 90.2062 23.9775 87.6163 25.8876 85.7062C27.7977 83.7961 30.3876 82.7218 33.0889 82.719H115.538C118.239 82.7227 120.828 83.7974 122.737 85.7074C124.647 87.6175 125.721 90.2068 125.723 92.9075V129.405C125.721 132.106 124.647 134.696 122.737 136.606C120.828 138.516 118.239 139.59 115.538 139.594ZM33.0889 84.119C30.7586 84.1208 28.5243 85.0474 26.8765 86.6951C25.2288 88.3429 24.3022 90.5772 24.3004 92.9075V129.405C24.3022 131.736 25.2288 133.97 26.8765 135.618C28.5243 137.266 30.7586 138.192 33.0889 138.194H115.538C117.868 138.191 120.101 137.264 121.749 135.617C123.396 133.969 124.322 131.735 124.323 129.405V92.9075C124.322 90.5778 123.396 88.344 121.749 86.6964C120.101 85.0487 117.868 84.1218 115.538 84.119H33.0889Z" fill="#262626"/>
<path d="M42.1122 102.137C41.9295 102.137 41.7541 102.066 41.6233 101.938C41.4925 101.811 41.4167 101.637 41.4122 101.454C41.3457 98.6055 42.3992 96.9045 43.2987 95.977C44.2909 94.9278 45.6565 94.3116 47.0997 94.262H47.1382C48.532 94.2914 49.8578 94.87 50.8272 95.872C51.7442 96.7925 52.8327 98.5075 52.7977 101.444C52.7977 101.63 52.7239 101.808 52.5927 101.939C52.4614 102.07 52.2833 102.144 52.0977 102.144C51.912 102.144 51.734 102.07 51.6027 101.939C51.4714 101.808 51.3977 101.63 51.3977 101.444C51.4257 98.994 50.5647 97.594 49.8367 96.8765C49.1249 96.1427 48.1563 95.7136 47.1347 95.6795H47.1102C46.0445 95.727 45.0397 96.1893 44.3102 96.9675C43.2917 98.0175 42.7737 99.5645 42.8192 101.437C42.8215 101.529 42.8057 101.62 42.7726 101.706C42.7396 101.792 42.69 101.87 42.6266 101.937C42.5632 102.004 42.4873 102.057 42.4033 102.095C42.3192 102.132 42.2286 102.152 42.1367 102.154L42.1122 102.137Z" fill="#262626"/>
<path d="M57.1619 129.119H37.1489C36.6588 129.118 36.1744 129.013 35.7281 128.811C35.2818 128.608 34.8839 128.313 34.5611 127.944C34.2383 127.575 33.9981 127.141 33.8565 126.672C33.7148 126.203 33.6751 125.709 33.7399 125.223L36.5399 104.419C36.6502 103.593 37.0567 102.836 37.6838 102.287C38.3108 101.739 39.1158 101.436 39.9489 101.437H53.8999C54.7196 101.437 55.5123 101.73 56.1354 102.262C56.7584 102.795 57.1709 103.532 57.2984 104.342L60.5499 125.15C60.6273 125.639 60.5976 126.14 60.4629 126.617C60.3283 127.095 60.0919 127.537 59.7699 127.914C59.448 128.291 59.0481 128.594 58.5979 128.802C58.1477 129.01 57.6578 129.118 57.1619 129.119Z" fill="#FFE18B"/>
<path d="M111.534 98.2625H73.6115C72.1057 98.2625 70.885 99.4831 70.885 100.989V103.106C70.885 104.612 72.1057 105.833 73.6115 105.833H111.534C113.04 105.833 114.261 104.612 114.261 103.106V100.989C114.261 99.4831 113.04 98.2625 111.534 98.2625Z" fill="#FFBB45"/>
<path d="M112.452 115.416H72.6985C72.5129 115.416 72.3348 115.342 72.2036 115.211C72.0723 115.08 71.9985 114.902 71.9985 114.716C71.9985 114.53 72.0723 114.352 72.2036 114.221C72.3348 114.09 72.5129 114.016 72.6985 114.016H112.452C112.637 114.016 112.815 114.09 112.947 114.221C113.078 114.352 113.152 114.53 113.152 114.716C113.152 114.902 113.078 115.08 112.947 115.211C112.815 115.342 112.637 115.416 112.452 115.416Z" fill="#262626"/>
<path d="M106.855 124.411H72.6985C72.5129 124.411 72.3348 124.337 72.2036 124.206C72.0723 124.075 71.9985 123.897 71.9985 123.711C71.9985 123.525 72.0723 123.347 72.2036 123.216C72.3348 123.085 72.5129 123.011 72.6985 123.011H106.855C107.041 123.011 107.219 123.085 107.35 123.216C107.481 123.347 107.555 123.525 107.555 123.711C107.555 123.897 107.481 124.075 107.35 124.206C107.219 124.337 107.041 124.411 106.855 124.411Z" fill="#262626"/>
<path d="M223.517 213.804C235.641 213.804 245.469 204.039 245.469 191.992C245.469 179.946 235.641 170.18 223.517 170.18C211.394 170.18 201.565 179.946 201.565 191.992C201.565 204.039 211.394 213.804 223.517 213.804Z" fill="#262626"/>
<path d="M201.565 184.376C213.689 184.376 223.517 174.611 223.517 162.564C223.517 150.518 213.689 140.752 201.565 140.752C189.441 140.752 179.613 150.518 179.613 162.564C179.613 174.611 189.441 184.376 201.565 184.376Z" fill="#262626"/>
<path d="M182.28 159.061H168.938C165.654 159.061 162.402 158.414 159.368 157.157C156.333 155.9 153.576 154.058 151.254 151.735C148.932 149.413 147.09 146.655 145.833 143.621C144.577 140.587 143.93 137.334 143.931 134.05V116.984C143.936 113.061 145.498 109.3 148.274 106.528C151.05 103.756 154.813 102.199 158.736 102.2H176.75C182.855 102.2 188.709 104.625 193.025 108.941C197.342 113.258 199.766 119.112 199.766 125.216V141.606C199.765 143.901 199.311 146.172 198.431 148.291C197.551 150.41 196.263 152.335 194.639 153.956C193.015 155.577 191.088 156.862 188.967 157.738C186.847 158.614 184.575 159.063 182.28 159.061Z" fill="#262626"/>
<path d="M149.45 108.045C149.45 108.045 141.533 109.214 139.454 125.958C139.209 128.003 138.326 129.919 136.931 131.435L135.657 132.814C135.336 133.162 135.153 133.614 135.143 134.087C135.134 134.56 135.298 135.02 135.604 135.38L137.33 137.41L136.458 148.12C136.458 148.12 134.708 159.533 148.145 159.18H156.692V171.02H183.554V150.668C183.554 150.668 189.676 149.618 190.789 143.591C191.07 142.084 191.006 140.534 190.603 139.055C190.199 137.577 189.466 136.209 188.458 135.054C186.452 132.783 182.917 130.854 177.097 133.57C177.1 133.57 153.979 138.211 149.45 108.045Z" fill="white"/>
<path d="M181.724 146.177C181.17 146.177 180.628 146.013 180.168 145.706C179.708 145.398 179.349 144.961 179.137 144.449C178.925 143.937 178.869 143.374 178.977 142.831C179.085 142.288 179.352 141.789 179.744 141.397C180.135 141.006 180.634 140.739 181.177 140.631C181.72 140.523 182.283 140.579 182.795 140.791C183.307 141.002 183.744 141.361 184.052 141.822C184.359 142.282 184.524 142.824 184.524 143.377C184.524 144.12 184.229 144.832 183.703 145.357C183.178 145.882 182.466 146.177 181.724 146.177ZM181.724 141.956C181.447 141.956 181.176 142.039 180.946 142.192C180.716 142.346 180.536 142.565 180.43 142.821C180.324 143.076 180.296 143.358 180.35 143.63C180.405 143.901 180.538 144.151 180.734 144.346C180.929 144.542 181.179 144.675 181.45 144.729C181.722 144.784 182.004 144.756 182.259 144.65C182.515 144.544 182.734 144.364 182.888 144.134C183.041 143.904 183.124 143.633 183.124 143.356C183.124 142.985 182.976 142.629 182.714 142.366C182.451 142.104 182.095 141.956 181.724 141.956Z" fill="#262626"/>
<path d="M179.613 144.067C179.431 144.067 179.256 143.996 179.125 143.869C178.995 143.743 178.918 143.57 178.913 143.388C178.864 141.942 179.294 140.773 180.197 139.912C181.989 138.204 184.982 138.421 185.097 138.432C185.283 138.446 185.455 138.534 185.577 138.675C185.698 138.817 185.758 139.001 185.743 139.186C185.729 139.372 185.641 139.544 185.5 139.665C185.358 139.786 185.175 139.846 184.989 139.832C184.964 139.832 182.483 139.657 181.139 140.938C180.533 141.519 180.257 142.306 180.292 143.349C180.295 143.442 180.28 143.534 180.248 143.62C180.215 143.706 180.166 143.786 180.103 143.853C180.04 143.92 179.964 143.974 179.88 144.012C179.796 144.05 179.705 144.071 179.613 144.074V144.067Z" fill="#262626"/>
<path d="M152.267 133.55C153.182 133.55 153.923 132.808 153.923 131.894C153.923 130.98 153.182 130.239 152.267 130.239C151.353 130.239 150.612 130.98 150.612 131.894C150.612 132.808 151.353 133.55 152.267 133.55Z" fill="#262626"/>
<path d="M146.454 147.511C145.78 147.514 145.112 147.38 144.491 147.119C142.478 146.269 141.127 144.025 141.131 141.54C141.131 141.332 141.178 141.126 141.267 140.937C141.355 140.749 141.484 140.582 141.644 140.449C141.805 140.315 141.992 140.218 142.193 140.165C142.395 140.112 142.605 140.103 142.811 140.14L151.158 141.631C151.372 141.671 151.573 141.758 151.748 141.887C151.923 142.015 152.066 142.182 152.167 142.374C152.268 142.566 152.324 142.778 152.332 142.995C152.339 143.212 152.296 143.428 152.208 143.626C151.137 146.006 148.768 147.511 146.454 147.511ZM142.559 141.502C142.555 141.512 142.555 141.523 142.559 141.533C142.559 143.465 143.563 145.187 145.065 145.824C147.368 146.797 150.021 145.124 150.962 143.024L150.941 142.982L142.59 141.491L142.559 141.502Z" fill="#262626"/>
<path d="M156.471 159.194H169.306C169.419 159.195 169.529 159.235 169.617 159.307C169.705 159.379 169.766 159.479 169.789 159.591C169.811 159.702 169.796 159.818 169.743 159.919C169.691 160.02 169.606 160.1 169.502 160.146L156.471 165.711V159.194Z" fill="#262626"/>
<path d="M156.471 170.747C156.469 170.109 156.671 169.487 157.049 168.972C157.428 168.458 157.961 168.079 158.571 167.891C159.038 167.75 159.517 167.654 160.003 167.604C161.836 167.435 163.673 167.89 165.214 168.896C166.502 167.898 168.083 167.355 169.712 167.352C171.34 167.348 172.924 167.883 174.216 168.875C175.52 168 177.043 167.507 178.612 167.454C179.597 167.427 180.578 167.576 181.51 167.895C182.091 168.098 182.594 168.476 182.949 168.978C183.305 169.48 183.496 170.08 183.495 170.695V176.82H156.471V170.747Z" fill="#FFE18B"/>
<path d="M260.669 259.105L106.232 258.976L113.078 196.301C113.727 190.361 116.543 184.87 120.986 180.875C125.43 176.881 131.19 174.665 137.165 174.65L201.008 174.489C208.457 174.471 215.741 176.679 221.927 180.829C228.113 184.979 232.917 190.882 235.725 197.782C248.675 227.56 258.044 249.302 259.066 251.881C259.553 253.146 259.942 254.446 260.232 255.77C260.459 256.869 260.605 257.984 260.669 259.105Z" fill="#FFE18B"/>
<path d="M213.945 259.025H134.782V205.373H194.523C195.34 205.373 196.134 205.634 196.791 206.119C197.448 206.603 197.933 207.285 198.174 208.065L213.945 259.025Z" fill="#262626"/>
<path d="M194.512 206.073C194.345 206.076 194.183 206.018 194.055 205.912C193.927 205.805 193.841 205.657 193.812 205.492C193.616 204.334 189.112 177.104 198.509 173.831C198.685 173.77 198.877 173.781 199.045 173.862C199.212 173.942 199.34 174.086 199.402 174.262C199.463 174.437 199.452 174.63 199.371 174.797C199.291 174.964 199.147 175.093 198.971 175.154C192.087 177.548 193.91 197.698 195.195 205.254C195.21 205.345 195.208 205.438 195.187 205.528C195.167 205.618 195.129 205.702 195.075 205.778C195.022 205.853 194.955 205.917 194.877 205.965C194.798 206.014 194.712 206.047 194.621 206.063C194.585 206.069 194.549 206.073 194.512 206.073Z" fill="#262626"/>
<path d="M136.532 206.073C136.374 206.073 136.221 206.02 136.097 205.922C135.973 205.824 135.886 205.688 135.849 205.534C134.022 197.915 133.972 189.977 135.706 182.336C136.334 179.616 137.191 176.953 138.268 174.377C138.343 174.211 138.479 174.08 138.649 174.013C138.818 173.946 139.007 173.948 139.176 174.018C139.344 174.089 139.478 174.222 139.55 174.389C139.621 174.557 139.625 174.746 139.559 174.916C138.514 177.42 137.682 180.007 137.071 182.651C135.385 190.084 135.434 197.805 137.214 205.215C137.235 205.305 137.238 205.398 137.223 205.489C137.208 205.579 137.175 205.666 137.126 205.744C137.077 205.822 137.014 205.89 136.939 205.943C136.864 205.997 136.779 206.035 136.689 206.055C136.638 206.068 136.585 206.074 136.532 206.073Z" fill="#262626"/>
<path d="M126.525 162.302C125.797 161.361 124.962 160.508 124.036 159.761L123.998 159.726C122.266 158.19 120.763 156.415 119.531 154.455C118.439 152.705 117.781 150.913 116.711 148.155C116.175 146.783 115.797 145.705 115.587 145.103C113.092 137.935 111.454 131.509 108.92 130.585C108.538 130.456 108.142 130.374 107.74 130.343C107.205 130.293 106.666 130.351 106.154 130.513C105.642 130.674 105.167 130.937 104.758 131.285C104.487 131.516 104.251 131.787 104.058 132.086C103.078 133.644 103.564 135.901 104.569 140.35C104.73 141.05 104.874 141.627 104.968 142.012L107.002 151.336C107.002 151.336 102.004 152.467 102.284 156.429C102.284 156.429 97.6635 153.692 95.8715 159.068C95.8715 159.068 90.0265 159.54 91.724 165.952C91.724 165.952 94.0795 174.534 97.569 174.818C97.569 174.818 96.911 188.209 108.038 194.068L126.237 191.779L127.435 186.592C130.585 172.942 129.164 168.514 128.635 166.876C128.124 165.27 127.415 163.733 126.525 162.302Z" fill="white"/>
<path d="M110.397 186.476C110.287 186.477 110.178 186.451 110.079 186.401C109.981 186.351 109.895 186.279 109.83 186.189C107.729 183.337 106.424 179.976 106.05 176.452C105.256 168.402 109.855 162.452 111.738 160.405L110.278 156.639C110.135 156.257 109.949 155.771 109.743 155.288C108.584 152.596 108.063 150.335 108.196 148.564C108.233 148.03 108.379 147.508 108.624 147.031C108.869 146.554 109.208 146.131 109.62 145.789C110.024 145.452 110.493 145.201 110.997 145.05C111.501 144.9 112.031 144.853 112.553 144.914C115.724 145.264 117.621 148.89 117.702 149.04C117.744 149.122 117.77 149.212 117.778 149.303C117.785 149.395 117.775 149.488 117.747 149.575C117.719 149.663 117.674 149.744 117.615 149.815C117.555 149.885 117.483 149.943 117.401 149.985C117.319 150.028 117.23 150.054 117.138 150.061C117.046 150.069 116.954 150.059 116.866 150.031C116.778 150.003 116.697 149.958 116.626 149.898C116.556 149.839 116.498 149.766 116.456 149.684C116.456 149.653 114.821 146.573 112.399 146.307C112.063 146.268 111.723 146.297 111.399 146.393C111.074 146.489 110.773 146.651 110.513 146.867C110.245 147.089 110.026 147.364 109.868 147.674C109.709 147.984 109.616 148.322 109.592 148.669C109.477 150.213 109.96 152.253 111.027 154.735C111.248 155.242 111.44 155.753 111.587 156.135L113.365 160.72L113.054 161.042C111.538 162.613 106.659 168.357 107.454 176.309C107.799 179.582 109.006 182.704 110.954 185.356C111.063 185.506 111.108 185.693 111.08 185.876C111.052 186.059 110.952 186.223 110.803 186.333C110.686 186.422 110.544 186.472 110.397 186.476Z" fill="#262626"/>
<path d="M150.045 255.605C145.305 255.293 140.548 255.858 136.013 257.271C119.14 262.588 111.653 278.17 110.064 281.698L150.045 281.904V255.605Z" fill="white"/>
<path d="M150.745 282.607L108.983 282.39L109.424 281.41C112.035 275.628 119.826 261.639 135.804 256.602C140.42 255.163 145.262 254.587 150.087 254.905L150.745 254.947V282.607ZM111.16 281.004L149.345 281.2V256.266C144.907 256.05 140.464 256.62 136.224 257.95C121.625 262.538 114.076 274.925 111.16 281.004Z" fill="#262626"/>
<path d="M104.135 176.75C103.452 176.757 102.776 176.608 102.158 176.316C101.388 175.939 100.736 175.359 100.271 174.64C100.032 174.932 99.7322 175.171 99.393 175.34C98.7497 175.644 98.0134 175.688 97.3385 175.462C97.2521 175.431 97.1727 175.382 97.1049 175.32C97.0372 175.258 96.9823 175.183 96.9434 175.1C96.9046 175.016 96.8826 174.926 96.8786 174.834C96.8746 174.742 96.8888 174.651 96.9203 174.564C96.9517 174.478 96.9999 174.398 97.0621 174.331C97.1242 174.263 97.1991 174.208 97.2825 174.169C97.3659 174.13 97.4561 174.108 97.5479 174.104C97.6398 174.1 97.7316 174.115 97.818 174.146C98.1374 174.242 98.4808 174.218 98.784 174.08C98.9955 173.943 99.1778 173.767 99.3203 173.559C99.4627 173.352 99.5624 173.118 99.6135 172.872L100.313 170.594L100.968 172.883C100.968 172.883 101.434 174.412 102.785 175.049C103.744 175.504 104.962 175.424 106.404 174.815C106.489 174.774 106.581 174.752 106.675 174.748C106.769 174.745 106.863 174.76 106.951 174.794C107.039 174.828 107.12 174.879 107.187 174.944C107.255 175.01 107.309 175.088 107.346 175.175C107.383 175.261 107.402 175.355 107.401 175.449C107.401 175.543 107.382 175.636 107.345 175.723C107.308 175.81 107.254 175.888 107.186 175.953C107.118 176.018 107.038 176.069 106.95 176.103C106.064 176.504 105.107 176.724 104.135 176.75Z" fill="#262626"/>
<path d="M100.282 173.782C100.134 173.781 99.9892 173.734 99.8697 173.646C99.7502 173.558 99.6617 173.434 99.6172 173.292L95.2002 159.271C95.1445 159.094 95.1615 158.902 95.2475 158.737C95.3335 158.572 95.4814 158.448 95.6587 158.393C95.836 158.337 96.0281 158.354 96.1929 158.44C96.3576 158.526 96.4815 158.674 96.5372 158.851L100.937 172.872C100.964 172.96 100.974 173.052 100.966 173.144C100.958 173.236 100.932 173.325 100.89 173.406C100.847 173.488 100.789 173.56 100.718 173.619C100.648 173.679 100.566 173.723 100.478 173.751C100.415 173.77 100.349 173.781 100.282 173.782Z" fill="#262626"/>
<path d="M107.211 170.881C107.067 170.88 106.927 170.835 106.809 170.752C106.691 170.669 106.602 170.551 106.553 170.415L101.636 156.657C101.605 156.57 101.591 156.478 101.596 156.386C101.6 156.294 101.623 156.204 101.662 156.121C101.702 156.038 101.757 155.963 101.825 155.901C101.893 155.839 101.973 155.792 102.059 155.761C102.146 155.729 102.238 155.716 102.33 155.72C102.422 155.725 102.512 155.747 102.595 155.787C102.678 155.826 102.753 155.881 102.815 155.95C102.877 156.018 102.924 156.097 102.955 156.184L107.855 169.946C107.893 170.052 107.905 170.165 107.889 170.276C107.874 170.387 107.832 170.493 107.767 170.585C107.702 170.677 107.616 170.751 107.517 170.803C107.417 170.854 107.306 170.881 107.194 170.881H107.211Z" fill="#262626"/>
<path d="M290.483 93.4885H244.685C238.044 93.4885 232.659 98.872 232.659 105.513C232.659 112.154 238.044 117.537 244.685 117.537H290.483C297.125 117.537 302.509 112.154 302.509 105.513C302.509 98.872 297.125 93.4885 290.483 93.4885Z" fill="white"/>
<path d="M290.5 118.241H244.682C241.306 118.241 238.07 116.9 235.683 114.513C233.296 112.127 231.956 108.89 231.956 105.515C231.956 102.139 233.296 98.9025 235.683 96.5159C238.07 94.1294 241.306 92.7886 244.682 92.7886H290.5C293.875 92.7886 297.112 94.1293 299.499 96.5159C301.885 98.9025 303.226 102.139 303.226 105.515C303.226 108.89 301.885 112.127 299.499 114.513C297.112 116.9 293.875 118.241 290.5 118.241ZM244.682 94.1886C241.678 94.1886 238.797 95.3818 236.673 97.5059C234.549 99.6299 233.356 102.511 233.356 105.515C233.356 108.518 234.549 111.399 236.673 113.523C238.797 115.647 241.678 116.841 244.682 116.841H290.5C293.504 116.841 296.385 115.647 298.509 113.523C300.633 111.399 301.826 108.518 301.826 105.515C301.826 102.511 300.633 99.6299 298.509 97.5059C296.385 95.3818 293.504 94.1886 290.5 94.1886H244.682Z" fill="#262626"/>
<path d="M248.552 109.431C250.715 109.431 252.468 107.677 252.468 105.514C252.468 103.351 250.715 101.598 248.552 101.598C246.389 101.598 244.635 103.351 244.635 105.514C244.635 107.677 246.389 109.431 248.552 109.431Z" fill="#F9B800"/>
<path d="M267.582 109.431C269.745 109.431 271.498 107.677 271.498 105.514C271.498 103.351 269.745 101.598 267.582 101.598C265.419 101.598 263.665 103.351 263.665 105.514C263.665 107.677 265.419 109.431 267.582 109.431Z" fill="#F9B800"/>
<path d="M286.611 109.431C288.774 109.431 290.528 107.677 290.528 105.514C290.528 103.351 288.774 101.598 286.611 101.598C284.448 101.598 282.695 103.351 282.695 105.514C282.695 107.677 284.448 109.431 286.611 109.431Z" fill="#F9B800"/>
<path d="M61.6877 159.411H39.4452C34.8911 159.411 31.1992 163.103 31.1992 167.657V189.9C31.1992 194.454 34.8911 198.146 39.4452 198.146H61.6877C66.2419 198.146 69.9337 194.454 69.9337 189.9V167.657C69.9337 163.103 66.2419 159.411 61.6877 159.411Z" fill="white"/>
<path d="M61.6843 198.845H39.4453C37.0732 198.842 34.7993 197.898 33.1223 196.22C31.4453 194.542 30.502 192.268 30.4993 189.896V167.65C30.502 165.278 31.4453 163.004 33.1223 161.326C34.7993 159.648 37.0732 158.704 39.4453 158.7H61.6843C64.057 158.703 66.3317 159.647 68.0095 161.325C69.6872 163.003 70.631 165.277 70.6338 167.65V189.885C70.6338 192.26 69.6912 194.537 68.0132 196.217C66.3351 197.897 64.0588 198.843 61.6843 198.845ZM39.4453 160.111C37.4457 160.113 35.5285 160.907 34.114 162.321C32.6994 163.734 31.903 165.65 31.8993 167.65V189.885C31.9011 191.887 32.6966 193.805 34.1113 195.22C35.5259 196.636 37.4442 197.432 39.4453 197.435H61.6843C63.6857 197.432 65.6043 196.636 67.0195 195.221C68.4347 193.805 69.231 191.887 69.2338 189.885V167.65C69.2319 165.648 68.4359 163.729 67.0205 162.314C65.6051 160.898 63.686 160.102 61.6843 160.1L39.4453 160.111Z" fill="#262626"/>
<path d="M61.3685 172.448C60.9405 171.663 60.3017 171.012 59.524 170.569C55.9505 168.57 52.342 169.809 50.5745 172.406C48.7825 169.778 45.104 168.535 41.4745 170.656C40.8159 171.04 40.2655 171.584 39.875 172.238C38.2335 174.996 38.5555 177.765 39.9345 179.735C39.9594 179.771 39.9863 179.805 40.015 179.837V179.854C40.043 179.893 41.8 181.93 42.899 183.043C44.997 185.087 47.1966 187.024 49.4895 188.846C49.7861 189.088 50.1569 189.22 50.5395 189.22C50.9221 189.22 51.2929 189.088 51.5895 188.846C53.567 187.267 55.1735 185.899 56.367 184.852C57.2787 184.094 58.1393 183.275 58.943 182.402C60.658 180.509 64.4345 178.027 61.3685 172.448Z" fill="#D3B970"/>
<path d="M314.59 144.865H246.323C239.824 144.865 234.556 150.133 234.556 156.632V231.367C234.556 237.866 239.824 243.134 246.323 243.134H314.59C321.089 243.134 326.357 237.866 326.357 231.367V156.632C326.357 150.133 321.089 144.865 314.59 144.865Z" fill="white"/>
<path d="M314.59 243.835H246.323C243.018 243.831 239.849 242.516 237.512 240.179C235.174 237.842 233.86 234.673 233.856 231.368V156.632C233.86 153.327 235.174 150.158 237.512 147.821C239.849 145.483 243.018 144.169 246.323 144.165H314.59C317.896 144.169 321.065 145.483 323.402 147.821C325.739 150.158 327.054 153.327 327.057 156.632V231.368C327.054 234.673 325.739 237.842 323.402 240.179C321.065 242.516 317.896 243.831 314.59 243.835ZM246.323 145.565C243.389 145.569 240.576 146.736 238.502 148.811C236.427 150.885 235.26 153.698 235.256 156.632V231.368C235.26 234.302 236.427 237.114 238.502 239.189C240.576 241.264 243.389 242.431 246.323 242.435H314.59C317.524 242.431 320.337 241.264 322.412 239.189C324.487 237.114 325.654 234.302 325.657 231.368V156.632C325.655 153.698 324.488 150.884 322.413 148.81C320.338 146.735 317.525 145.568 314.59 145.565H246.323Z" fill="#262626"/>
<path d="M257.491 181.822H248.36C245.71 181.822 243.561 183.97 243.561 186.62V195.752C243.561 198.402 245.71 200.55 248.36 200.55H257.491C260.141 200.55 262.29 198.402 262.29 195.752V186.62C262.29 183.97 260.141 181.822 257.491 181.822Z" fill="#FFF1C9"/>
<path d="M257.491 210.252H248.36C245.71 210.252 243.561 212.4 243.561 215.05V224.182C243.561 226.832 245.71 228.98 248.36 228.98H257.491C260.141 228.98 262.29 226.832 262.29 224.182V215.05C262.29 212.4 260.141 210.252 257.491 210.252Z" fill="#FFF1C9"/>
<path d="M316.123 186.63H273.85C273.665 186.63 273.487 186.557 273.355 186.425C273.224 186.294 273.15 186.116 273.15 185.93C273.15 185.745 273.224 185.567 273.355 185.436C273.487 185.304 273.665 185.23 273.85 185.23H316.123C316.309 185.23 316.487 185.304 316.618 185.436C316.75 185.567 316.823 185.745 316.823 185.93C316.823 186.116 316.75 186.294 316.618 186.425C316.487 186.557 316.309 186.63 316.123 186.63Z" fill="#262626"/>
<path d="M299.908 196.938H273.85C273.665 196.938 273.487 196.864 273.355 196.733C273.224 196.602 273.15 196.424 273.15 196.238C273.15 196.052 273.224 195.874 273.355 195.743C273.487 195.612 273.665 195.538 273.85 195.538H299.908C300.094 195.538 300.272 195.612 300.403 195.743C300.534 195.874 300.608 196.052 300.608 196.238C300.608 196.424 300.534 196.602 300.403 196.733C300.272 196.864 300.094 196.938 299.908 196.938Z" fill="#262626"/>
<path d="M316.123 215.162H273.85C273.665 215.162 273.487 215.089 273.355 214.957C273.224 214.826 273.15 214.648 273.15 214.462C273.15 214.277 273.224 214.099 273.355 213.967C273.487 213.836 273.665 213.762 273.85 213.762H316.123C316.309 213.762 316.487 213.836 316.618 213.967C316.75 214.099 316.823 214.277 316.823 214.462C316.823 214.648 316.75 214.826 316.618 214.957C316.487 215.089 316.309 215.162 316.123 215.162Z" fill="#262626"/>
<path d="M299.908 225.47H273.85C273.665 225.47 273.487 225.396 273.355 225.265C273.224 225.134 273.15 224.956 273.15 224.77C273.15 224.584 273.224 224.406 273.355 224.275C273.487 224.144 273.665 224.07 273.85 224.07H299.908C300.094 224.07 300.272 224.144 300.403 224.275C300.534 224.406 300.608 224.584 300.608 224.77C300.608 224.956 300.534 225.134 300.403 225.265C300.272 225.396 300.094 225.47 299.908 225.47Z" fill="#262626"/>
<path d="M260.263 158.036C259.971 157.497 259.533 157.052 259 156.751C256.55 155.379 254.079 156.23 252.868 158.011C251.639 156.209 249.119 155.358 246.638 156.804C246.188 157.069 245.812 157.443 245.546 157.892C244.419 159.779 244.639 161.676 245.584 163.027C245.601 163.051 245.62 163.075 245.64 163.097C245.661 163.125 246.865 164.521 247.618 165.284C248.262 165.932 249.851 167.416 252.133 169.257C252.335 169.42 252.588 169.509 252.848 169.509C253.109 169.509 253.361 169.42 253.564 169.257C254.919 168.172 256.014 167.234 256.837 166.52C257.455 166 258.039 165.441 258.587 164.847C259.777 163.562 262.367 161.861 260.263 158.036Z" fill="#D3B970"/>
<path d="M230.713 289.062H154.903C153.747 289.062 152.601 288.835 151.532 288.392C150.463 287.95 149.492 287.301 148.674 286.484C147.856 285.666 147.207 284.695 146.764 283.626C146.322 282.558 146.094 281.412 146.094 280.256V265.72C146.095 260.534 148.155 255.561 151.822 251.894C155.489 248.227 160.462 246.166 165.648 246.166H247.73C251.165 246.166 254.459 247.53 256.887 249.958C259.316 252.387 260.68 255.681 260.68 259.116C260.679 263.049 259.903 266.945 258.396 270.579C256.889 274.213 254.681 277.514 251.899 280.295C249.116 283.076 245.813 285.281 242.178 286.785C238.543 288.289 234.647 289.063 230.713 289.062Z" fill="#FFE18B"/>
<path d="M113.481 290.451C110.342 290.386 107.247 289.703 104.373 288.442C101.498 287.181 98.9003 285.366 96.7273 283.101C94.5543 280.835 92.8488 278.164 91.7081 275.24C90.5675 272.315 90.0142 269.194 90.0797 266.056L91.3852 203.249C91.4614 199.642 92.9668 196.213 95.5704 193.715C98.174 191.218 101.663 189.857 105.27 189.931L125.867 190.362C129.471 190.44 132.897 191.946 135.391 194.549C137.885 197.152 139.243 200.638 139.167 204.243L137.876 267.05C137.811 270.189 137.128 273.283 135.867 276.158C134.606 279.032 132.79 281.63 130.525 283.803C128.26 285.977 125.589 287.682 122.664 288.823C119.74 289.963 116.619 290.517 113.481 290.451Z" fill="#FFE18B"/>
<path d="M225.575 246.162H206.57C206.384 246.162 206.206 246.088 206.075 245.957C205.944 245.826 205.87 245.648 205.87 245.462C205.87 245.276 205.944 245.098 206.075 244.967C206.206 244.836 206.384 244.762 206.57 244.762H225.575C225.761 244.762 225.939 244.836 226.07 244.967C226.201 245.098 226.275 245.276 226.275 245.462C226.275 245.648 226.201 245.826 226.07 245.957C225.939 246.088 225.761 246.162 225.575 246.162Z" fill="#262626"/>
<path d="M203.63 144.399C202.624 144.399 201.64 144.101 200.804 143.543C199.967 142.984 199.315 142.19 198.929 141.26C198.544 140.331 198.443 139.308 198.638 138.321C198.834 137.335 199.317 136.428 200.028 135.716C200.739 135.004 201.644 134.518 202.631 134.321C203.617 134.123 204.64 134.222 205.57 134.606C206.5 134.989 207.296 135.64 207.856 136.476C208.417 137.311 208.717 138.294 208.719 139.3C208.72 139.969 208.589 140.632 208.334 141.25C208.078 141.869 207.704 142.431 207.231 142.904C206.759 143.378 206.197 143.754 205.579 144.01C204.961 144.267 204.299 144.399 203.63 144.399ZM203.63 135.621C202.9 135.621 202.186 135.838 201.579 136.244C200.973 136.65 200.5 137.226 200.221 137.901C199.942 138.576 199.869 139.318 200.013 140.034C200.156 140.75 200.508 141.407 201.025 141.923C201.542 142.438 202.2 142.789 202.917 142.93C203.633 143.071 204.375 142.996 205.049 142.716C205.723 142.435 206.298 141.96 206.702 141.352C207.107 140.744 207.321 140.03 207.319 139.3C207.315 138.324 206.925 137.389 206.234 136.699C205.542 136.01 204.606 135.622 203.63 135.621Z" fill="#262626"/>
<path d="M139.265 206.073C139.079 206.073 138.901 205.999 138.77 205.868C138.639 205.737 138.565 205.559 138.565 205.373C138.474 191.404 127.05 191.1 126.57 191.1C126.385 191.1 126.207 191.026 126.075 190.895C125.944 190.764 125.87 190.586 125.87 190.4C125.87 190.214 125.944 190.036 126.075 189.905C126.207 189.774 126.385 189.7 126.57 189.7C126.703 189.7 139.849 190.004 139.951 205.376C139.951 205.562 139.877 205.74 139.746 205.871C139.615 206.003 139.437 206.076 139.251 206.076L139.265 206.073Z" fill="#262626"/>
<path d="M180.187 175.392H158.487C158.301 175.392 158.123 175.318 157.992 175.187C157.86 175.056 157.787 174.878 157.787 174.692C157.787 174.506 157.86 174.328 157.992 174.197C158.123 174.066 158.301 173.992 158.487 173.992H180.187C180.372 173.992 180.55 174.066 180.682 174.197C180.813 174.328 180.887 174.506 180.887 174.692C180.887 174.878 180.813 175.056 180.682 175.187C180.55 175.318 180.372 175.392 180.187 175.392Z" fill="#262626"/>
<path d="M159.621 286.342C159.435 286.342 159.257 286.268 159.126 286.137C158.995 286.006 158.921 285.828 158.921 285.642V253.89C158.921 253.704 158.995 253.526 159.126 253.395C159.257 253.264 159.435 253.19 159.621 253.19C159.807 253.19 159.985 253.264 160.116 253.395C160.247 253.526 160.321 253.704 160.321 253.89V285.642C160.321 285.828 160.247 286.006 160.116 286.137C159.985 286.268 159.807 286.342 159.621 286.342Z" fill="#262626"/>
<path d="M130.778 203.098H99.0293C98.8437 203.098 98.6656 203.024 98.5344 202.893C98.4031 202.762 98.3293 202.584 98.3293 202.398C98.3293 202.212 98.4031 202.034 98.5344 201.903C98.6656 201.772 98.8437 201.698 99.0293 201.698H130.778C130.963 201.698 131.142 201.772 131.273 201.903C131.404 202.034 131.478 202.212 131.478 202.398C131.478 202.584 131.404 202.762 131.273 202.893C131.142 203.024 130.963 203.098 130.778 203.098Z" fill="#262626"/>
<path d="M54.5371 250.561C54.3936 250.562 54.2536 250.518 54.1359 250.436C54.0182 250.354 53.9285 250.238 53.8791 250.103C49.8191 239.029 41.4261 230.037 41.3421 229.95C41.2144 229.815 41.1457 229.635 41.1509 229.449C41.1562 229.263 41.235 229.087 41.3701 228.959C41.5051 228.832 41.6853 228.763 41.8711 228.768C42.0569 228.774 42.2329 228.852 42.3606 228.987C42.4446 229.078 51.0336 238.269 55.1951 249.637C55.2583 249.812 55.2499 250.004 55.1719 250.172C55.0938 250.339 54.9524 250.47 54.7786 250.533C54.7005 250.558 54.6186 250.567 54.5371 250.561Z" fill="#262626"/>
<path d="M58.4991 251.703C58.3134 251.703 58.1354 251.629 58.0041 251.498C57.8728 251.366 57.7991 251.188 57.7991 251.003V241.416C57.7991 241.23 57.8728 241.052 58.0041 240.921C58.1354 240.79 58.3134 240.716 58.4991 240.716C58.6847 240.716 58.8628 240.79 58.994 240.921C59.1253 241.052 59.1991 241.23 59.1991 241.416V251.003C59.1991 251.188 59.1253 251.366 58.994 251.498C58.8628 251.629 58.6847 251.703 58.4991 251.703Z" fill="#262626"/>
<path d="M79.1242 265.419C79.1232 263.127 78.2125 260.93 76.5921 259.31C74.9717 257.689 72.7743 256.778 70.4827 256.778H68.5577V250.25H44.7367V256.781H42.8117C40.5198 256.781 38.3218 257.691 36.7012 259.312C35.0806 260.933 34.1702 263.131 34.1702 265.422C34.1729 267.712 35.0847 269.907 36.7051 271.525C38.3255 273.143 40.5219 274.051 42.8117 274.05C41.677 274.05 40.5534 274.273 39.505 274.707C38.4566 275.14 37.5039 275.777 36.7014 276.579C35.8989 277.381 35.2624 278.333 34.828 279.382C34.3937 280.43 34.1702 281.553 34.1702 282.688C34.1697 283.823 34.3929 284.947 34.827 285.996C35.2611 287.044 35.8977 287.997 36.7002 288.799C37.5027 289.602 38.4555 290.239 39.5042 290.673C40.5528 291.107 41.6767 291.33 42.8117 291.329H70.4827C72.7745 291.329 74.9725 290.419 76.5931 288.798C78.2137 287.178 79.1242 284.98 79.1242 282.688C79.1232 280.397 78.2124 278.2 76.5919 276.58C74.9714 274.96 72.7739 274.05 70.4827 274.05C72.7727 274.05 74.9691 273.141 76.5894 271.523C78.2097 269.904 79.1214 267.709 79.1242 265.419Z" fill="#F9B800"/>
<path d="M70.8465 274.799H61.085C60.8994 274.799 60.7213 274.725 60.59 274.594C60.4588 274.463 60.385 274.285 60.385 274.099C60.385 273.913 60.4588 273.735 60.59 273.604C60.7213 273.473 60.8994 273.399 61.085 273.399H70.8465C71.0322 273.399 71.2102 273.473 71.3415 273.604C71.4728 273.735 71.5465 273.913 71.5465 274.099C71.5465 274.285 71.4728 274.463 71.3415 274.594C71.2102 274.725 71.0322 274.799 70.8465 274.799Z" fill="#262626"/>
<path d="M47.404 274.75H42.294C42.1083 274.75 41.9303 274.676 41.799 274.545C41.6677 274.414 41.594 274.236 41.594 274.05C41.594 273.864 41.6677 273.686 41.799 273.555C41.9303 273.424 42.1083 273.35 42.294 273.35H47.404C47.5896 273.35 47.7677 273.424 47.899 273.555C48.0302 273.686 48.104 273.864 48.104 274.05C48.104 274.236 48.0302 274.414 47.899 274.545C47.7677 274.676 47.5896 274.75 47.404 274.75Z" fill="#262626"/>
<path d="M56.6512 252.28C63.349 252.28 68.7787 251.149 68.7787 249.753C68.7787 248.357 63.349 247.226 56.6512 247.226C49.9533 247.226 44.5237 248.357 44.5237 249.753C44.5237 251.149 49.9533 252.28 56.6512 252.28Z" fill="#262626"/>
<path d="M58.4991 241.416C61.6596 241.416 64.2216 238.854 64.2216 235.693C64.2216 232.533 61.6596 229.971 58.4991 229.971C55.3387 229.971 52.7766 232.533 52.7766 235.693C52.7766 238.854 55.3387 241.416 58.4991 241.416Z" fill="#FFBB45"/>
<path d="M39.7919 233.261C43.1785 233.261 45.9239 230.516 45.9239 227.129C45.9239 223.742 43.1785 220.997 39.7919 220.997C36.4053 220.997 33.6599 223.742 33.6599 227.129C33.6599 230.516 36.4053 233.261 39.7919 233.261Z" fill="#FFBB45"/>
<path d="M113.613 139.139C112.913 137.228 111.902 134.774 110.481 132.723C109.277 130.973 107.901 130.238 106.389 130.501C105.952 130.553 105.532 130.701 105.159 130.935C104.785 131.168 104.468 131.482 104.23 131.852C103.036 133.766 103.831 137.144 104.23 138.502L104.282 138.677L102.949 139.1L102.886 138.894C102.329 136.976 101.605 133.416 103.043 131.11C103.384 130.571 103.839 130.113 104.376 129.769C104.913 129.425 105.519 129.203 106.151 129.118C108.22 128.768 110.117 129.727 111.636 131.918C113.155 134.109 114.187 136.657 114.929 138.642L113.613 139.139Z" fill="#262626"/>
</svg>
